<?xml version="1.0" ?><svg height="30px" version="1.1" viewBox="0 0 40 40" width="30px" xmlns="http://www.w3.org/2000/svg" xmlns:xlink="http://www.w3.org/1999/xlink"><title/><desc/><defs/><g fill="none" fill-rule="evenodd" id="Iconfinder" stroke="none" stroke-width="1"><g id="Instagram"><rect fill="#7AB0EF" height="26" id="Shadow" opacity="0.300000012" rx="8" stroke="#7AB0EF" stroke-linecap="round" stroke-width="4" width="26" x="10" y="10"/><g transform="translate(7.000000, 7.000000)"><circle cx="13" cy="13" id="Oval" r="5" stroke="#113E73" stroke-width="4"/><circle cx="20" cy="5" fill="#113E73" id="Oval-34" r="1"/><path d="M8,0 L18,0 C22.418278,-8.8817842e-16 26,3.581722 26,8 L26,18 C26,22.418278 22.418278,26 18,26 L8,26 C3.581722,26 8.8817842e-16,22.418278 0,18 L0,8" id="Rectangle-45" stroke="#113E73" stroke-linecap="round" stroke-width="4"/><path d="M8,0 C7.09083006,0 6.21708261,0.151661705 5.40267674,0.431066023 M0.542672802,5.09781932 C0.423362714,5.40417175 0.322385691,5.71968914 0.241089581,6.04302364 C0.0836278379,6.66928747 0,7.32487757 0,8" id="Oval-2" stroke="#113E73" stroke-linecap="round" stroke-width="4"/></g></g></g></svg>